<svg xmlns="http://www.w3.org/2000/svg" xmlns:xlink="http://www.w3.org/1999/xlink" contentStyleType="text/css" data-diagram-type="DESCRIPTION" height="429px" preserveAspectRatio="none" style="width:793px;height:429px;background:#FFFFFF;" version="1.1" viewBox="0 0 793 429" width="793px" zoomAndPan="magnify"><defs/><g><!--cluster Xtract File Converter--><g class="cluster" data-entity="Xtract File Converter" data-source-line="1" data-uid="ent0002" id="cluster_Xtract File Converter"><path d="M8.5,6 L175.21,6 A3.75,3.75 0 0 1 177.71,8.5 L184.71,28.2969 L783.5,28.2969 A2.5,2.5 0 0 1 786,30.7969 L786,419.69 A2.5,2.5 0 0 1 783.5,422.19 L8.5,422.19 A2.5,2.5 0 0 1 6,419.69 L6,8.5 A2.5,2.5 0 0 1 8.5,6" fill="none" style="stroke:#000000;stroke-width:1.5;"/><line style="stroke:#000000;stroke-width:1.5;" x1="6" x2="184.71" y1="28.2969" y2="28.2969"/><text fill="#000000" font-family="sans-serif" font-size="14" font-weight="bold" lengthAdjust="spacing" textLength="165.71" x="10" y="20.9951">Xtract File Converter</text></g><!--entity App UI--><g class="entity" data-entity="App UI" data-source-line="2" data-uid="ent0003" id="entity_App UI"><rect fill="#F1F1F1" height="46.2969" rx="2.5" ry="2.5" style="stroke:#181818;stroke-width:0.5;" width="86.1768" x="412.91" y="41"/><rect fill="#F1F1F1" height="10" style="stroke:#181818;stroke-width:0.5;" width="15" x="479.0868" y="46"/><rect fill="#F1F1F1" height="2" style="stroke:#181818;stroke-width:0.5;" width="4" x="477.0868" y="48"/><rect fill="#F1F1F1" height="2" style="stroke:#181818;stroke-width:0.5;" width="4" x="477.0868" y="52"/><text fill="#000000" font-family="sans-serif" font-size="14" lengthAdjust="spacing" textLength="46.1768" x="427.91" y="73.9951">App UI</text></g><!--entity TemplateManager--><g class="entity" data-entity="TemplateManager" data-source-line="2" data-uid="ent0004" id="entity_TemplateManager"><rect fill="#F1F1F1" height="46.2969" rx="2.5" ry="2.5" style="stroke:#181818;stroke-width:0.5;" width="167.627" x="182.19" y="147.3"/><rect fill="#F1F1F1" height="10" style="stroke:#181818;stroke-width:0.5;" width="15" x="329.817" y="152.3"/><rect fill="#F1F1F1" height="2" style="stroke:#181818;stroke-width:0.5;" width="4" x="327.817" y="154.3"/><rect fill="#F1F1F1" height="2" style="stroke:#181818;stroke-width:0.5;" width="4" x="327.817" y="158.3"/><text fill="#000000" font-family="sans-serif" font-size="14" lengthAdjust="spacing" textLength="127.627" x="197.19" y="180.2951">TemplateManager</text></g><!--entity FileConverter--><g class="entity" data-entity="FileConverter" data-source-line="3" data-uid="ent0006" id="entity_FileConverter"><rect fill="#F1F1F1" height="46.2969" rx="2.5" ry="2.5" style="stroke:#181818;stroke-width:0.5;" width="134.1719" x="388.91" y="147.3"/><rect fill="#F1F1F1" height="10" style="stroke:#181818;stroke-width:0.5;" width="15" x="503.0819" y="152.3"/><rect fill="#F1F1F1" height="2" style="stroke:#181818;stroke-width:0.5;" width="4" x="501.0819" y="154.3"/><rect fill="#F1F1F1" height="2" style="stroke:#181818;stroke-width:0.5;" width="4" x="501.0819" y="158.3"/><text fill="#000000" font-family="sans-serif" font-size="14" lengthAdjust="spacing" textLength="94.1719" x="403.91" y="180.2951">FileConverter</text></g><!--entity LoadingScreen--><g class="entity" data-entity="LoadingScreen" data-source-line="4" data-uid="ent0008" id="entity_LoadingScreen"><rect fill="#F1F1F1" height="46.2969" rx="2.5" ry="2.5" style="stroke:#181818;stroke-width:0.5;" width="143.9199" x="558.04" y="147.3"/><rect fill="#F1F1F1" height="10" style="stroke:#181818;stroke-width:0.5;" width="15" x="681.9599" y="152.3"/><rect fill="#F1F1F1" height="2" style="stroke:#181818;stroke-width:0.5;" width="4" x="679.9599" y="154.3"/><rect fill="#F1F1F1" height="2" style="stroke:#181818;stroke-width:0.5;" width="4" x="679.9599" y="158.3"/><text fill="#000000" font-family="sans-serif" font-size="14" lengthAdjust="spacing" textLength="103.9199" x="573.04" y="180.2951">LoadingScreen</text></g><!--entity TemplateStore--><g class="entity" data-entity="TemplateStore" data-source-line="5" data-uid="ent0010" id="entity_TemplateStore"><rect fill="#F1F1F1" height="46.2969" rx="2.5" ry="2.5" style="stroke:#181818;stroke-width:0.5;" width="143.5713" x="22.21" y="253.6"/><rect fill="#F1F1F1" height="10" style="stroke:#181818;stroke-width:0.5;" width="15" x="145.7813" y="258.6"/><rect fill="#F1F1F1" height="2" style="stroke:#181818;stroke-width:0.5;" width="4" x="143.7813" y="260.6"/><rect fill="#F1F1F1" height="2" style="stroke:#181818;stroke-width:0.5;" width="4" x="143.7813" y="264.6"/><text fill="#000000" font-family="sans-serif" font-size="14" lengthAdjust="spacing" textLength="103.5713" x="37.21" y="286.5951">TemplateStore</text></g><!--entity TokenEngine--><g class="entity" data-entity="TokenEngine" data-source-line="6" data-uid="ent0012" id="entity_TokenEngine"><rect fill="#F1F1F1" height="46.2969" rx="2.5" ry="2.5" style="stroke:#181818;stroke-width:0.5;" width="130.6924" x="200.65" y="253.6"/><rect fill="#F1F1F1" height="10" style="stroke:#181818;stroke-width:0.5;" width="15" x="311.3424" y="258.6"/><rect fill="#F1F1F1" height="2" style="stroke:#181818;stroke-width:0.5;" width="4" x="309.3424" y="260.6"/><rect fill="#F1F1F1" height="2" style="stroke:#181818;stroke-width:0.5;" width="4" x="309.3424" y="264.6"/><text fill="#000000" font-family="sans-serif" font-size="14" lengthAdjust="spacing" textLength="90.6924" x="215.65" y="286.5951">TokenEngine</text></g><!--entity ExcelToZipConverter--><g class="entity" data-entity="ExcelToZipConverter" data-source-line="7" data-uid="ent0014" id="entity_ExcelToZipConverter"><rect fill="#F1F1F1" height="46.2969" rx="2.5" ry="2.5" style="stroke:#181818;stroke-width:0.5;" width="186.542" x="366.73" y="253.6"/><rect fill="#F1F1F1" height="10" style="stroke:#181818;stroke-width:0.5;" width="15" x="533.272" y="258.6"/><rect fill="#F1F1F1" height="2" style="stroke:#181818;stroke-width:0.5;" width="4" x="531.272" y="260.6"/><rect fill="#F1F1F1" height="2" style="stroke:#181818;stroke-width:0.5;" width="4" x="531.272" y="264.6"/><text fill="#000000" font-family="sans-serif" font-size="14" lengthAdjust="spacing" textLength="146.542" x="381.73" y="286.5951">ExcelToZipConverter</text></g><!--entity ZipToExcelExtractor--><g class="entity" data-entity="ZipToExcelExtractor" data-source-line="8" data-uid="ent0016" id="entity_ZipToExcelExtractor"><rect fill="#F1F1F1" height="46.2969" rx="2.5" ry="2.5" style="stroke:#181818;stroke-width:0.5;" width="181.2783" x="588.36" y="253.6"/><rect fill="#F1F1F1" height="10" style="stroke:#181818;stroke-width:0.5;" width="15" x="749.6383" y="258.6"/><rect fill="#F1F1F1" height="2" style="stroke:#181818;stroke-width:0.5;" width="4" x="747.6383" y="260.6"/><rect fill="#F1F1F1" height="2" style="stroke:#181818;stroke-width:0.5;" width="4" x="747.6383" y="264.6"/><text fill="#000000" font-family="sans-serif" font-size="14" lengthAdjust="spacing" textLength="141.2783" x="603.36" y="286.5951">ZipToExcelExtractor</text></g><!--entity settings_configs/*.json--><g class="entity" data-entity="settings_configs/*.json" data-source-line="10" data-uid="ent0019" id="entity_settings_configs/*.json"><rect fill="#F1F1F1" height="46.2969" rx="2.5" ry="2.5" style="stroke:#181818;stroke-width:0.5;" width="197.7529" x="22.12" y="359.89"/><rect fill="#F1F1F1" height="10" style="stroke:#181818;stroke-width:0.5;" width="15" x="199.8729" y="364.89"/><rect fill="#F1F1F1" height="2" style="stroke:#181818;stroke-width:0.5;" width="4" x="197.8729" y="366.89"/><rect fill="#F1F1F1" height="2" style="stroke:#181818;stroke-width:0.5;" width="4" x="197.8729" y="370.89"/><text fill="#000000" font-family="sans-serif" font-size="14" lengthAdjust="spacing" textLength="157.7529" x="37.12" y="392.8851">settings_configs/*.json</text></g><!--entity templates/*.xlsx--><g class="entity" data-entity="templates/*.xlsx" data-source-line="11" data-uid="ent0021" id="entity_templates/*.xlsx"><rect fill="#F1F1F1" height="46.2969" rx="2.5" ry="2.5" style="stroke:#181818;stroke-width:0.5;" width="154.4131" x="254.79" y="359.89"/><rect fill="#F1F1F1" height="10" style="stroke:#181818;stroke-width:0.5;" width="15" x="389.2031" y="364.89"/><rect fill="#F1F1F1" height="2" style="stroke:#181818;stroke-width:0.5;" width="4" x="387.2031" y="366.89"/><rect fill="#F1F1F1" height="2" style="stroke:#181818;stroke-width:0.5;" width="4" x="387.2031" y="370.89"/><text fill="#000000" font-family="sans-serif" font-size="14" lengthAdjust="spacing" textLength="114.4131" x="269.79" y="392.8851">templates/*.xlsx</text></g><!--link App UI to TemplateManager--><g class="link" data-entity-1="App UI" data-entity-2="TemplateManager" data-source-line="2" data-uid="lnk5" id="link_App UI_TemplateManager"><path d="M414.77,87.78 C382.9,105.28 344.2599,126.4932 312.4099,143.9732" fill="none" id="App UI-to-TemplateManager" style="stroke:#181818;stroke-width:1;"/><polygon fill="#181818" points="307.15,146.86,316.9644,146.0365,311.5333,144.4544,313.1154,139.0233,307.15,146.86" style="stroke:#181818;stroke-width:1;"/></g><!--link App UI to FileConverter--><g class="link" data-entity-1="App UI" data-entity-2="FileConverter" data-source-line="3" data-uid="lnk7" id="link_App UI_FileConverter"><path d="M456,87.78 C456,105.28 456,123.38 456,140.86" fill="none" id="App UI-to-FileConverter" style="stroke:#181818;stroke-width:1;"/><polygon fill="#181818" points="456,146.86,460,137.86,456,141.86,452,137.86,456,146.86" style="stroke:#181818;stroke-width:1;"/></g><!--link App UI to LoadingScreen--><g class="link" data-entity-1="App UI" data-entity-2="LoadingScreen" data-source-line="4" data-uid="lnk9" id="link_App UI_LoadingScreen"><path d="M493.76,87.78 C522.94,105.28 558.0033,126.2959 587.1733,143.7759" fill="none" id="App UI-to-LoadingScreen" style="stroke:#181818;stroke-width:1;"/><polygon fill="#181818" points="592.32,146.86,586.6561,138.8027,588.0311,144.2899,582.5439,145.6649,592.32,146.86" style="stroke:#181818;stroke-width:1;"/></g><!--link TemplateManager to TemplateStore--><g class="link" data-entity-1="TemplateManager" data-entity-2="TemplateStore" data-source-line="5" data-uid="lnk11" id="link_TemplateManager_TemplateStore"><path d="M228.68,194.08 C199.83,211.57 165.2106,232.5692 136.3806,250.0492" fill="none" id="TemplateManager-to-TemplateStore" style="stroke:#181818;stroke-width:1;"/><polygon fill="#181818" points="131.25,253.16,141.0198,251.9143,135.5255,250.5677,136.8721,245.0735,131.25,253.16" style="stroke:#181818;stroke-width:1;"/></g><!--link TemplateManager to TokenEngine--><g class="link" data-entity-1="TemplateManager" data-entity-2="TokenEngine" data-source-line="6" data-uid="lnk13" id="link_TemplateManager_TokenEngine"><path d="M266,194.08 C266,211.57 266,229.68 266,247.16" fill="none" id="TemplateManager-to-TokenEngine" style="stroke:#181818;stroke-width:1;"/><polygon fill="#181818" points="266,253.16,270,244.16,266,248.16,262,244.16,266,253.16" style="stroke:#181818;stroke-width:1;"/></g><!--link FileConverter to ExcelToZipConverter--><g class="link" data-entity-1="FileConverter" data-entity-2="ExcelToZipConverter" data-source-line="7" data-uid="lnk15" id="link_FileConverter_ExcelToZipConverter"><path d="M456.87,194.08 C457.54,211.57 458.2302,229.6844 458.9002,247.1644" fill="none" id="FileConverter-to-ExcelToZipConverter" style="stroke:#181818;stroke-width:1;"/><polygon fill="#181818" points="459.13,253.16,462.7824,244.0134,458.9385,248.1637,454.7882,244.3198,459.13,253.16" style="stroke:#181818;stroke-width:1;"/></g><!--link FileConverter to ZipToExcelExtractor--><g class="link" data-entity-1="FileConverter" data-entity-2="ZipToExcelExtractor" data-source-line="8" data-uid="lnk17" id="link_FileConverter_ZipToExcelExtractor"><path d="M504.39,194.08 C541.79,211.57 587.8949,233.1384 625.2749,250.6184" fill="none" id="FileConverter-to-ZipToExcelExtractor" style="stroke:#181818;stroke-width:1;"/><polygon fill="#181818" points="630.71,253.16,624.2518,245.7242,626.1808,251.042,620.863,252.971,630.71,253.16" style="stroke:#181818;stroke-width:1;"/></g><!--link FileConverter to TokenEngine--><g class="link" data-entity-1="FileConverter" data-entity-2="TokenEngine" data-source-line="9" data-uid="lnk18" id="link_FileConverter_TokenEngine"><path d="M414.77,194.08 C382.9,211.57 344.2599,232.7932 312.4099,250.2732" fill="none" id="FileConverter-to-TokenEngine" style="stroke:#181818;stroke-width:1;"/><polygon fill="#181818" points="307.15,253.16,316.9644,252.3365,311.5333,250.7544,313.1154,245.3233,307.15,253.16" style="stroke:#181818;stroke-width:1;"/></g><!--link TemplateStore to settings_configs/*.json--><g class="link" data-entity-1="TemplateStore" data-entity-2="settings_configs/*.json" data-source-line="10" data-uid="lnk20" id="link_TemplateStore_settings_configs/*.json"><path d="M99.86,300.38 C104.39,317.87 109.1279,336.1611 113.6479,353.6411" fill="none" id="TemplateStore-to-settings_configs/*.json" style="stroke:#181818;stroke-width:1;"/><polygon fill="#181818" points="115.15,359.45,116.7695,349.7352,113.8983,354.6092,109.0243,351.738,115.15,359.45" style="stroke:#181818;stroke-width:1;"/></g><!--link TemplateStore to templates/*.xlsx--><g class="link" data-entity-1="TemplateStore" data-entity-2="templates/*.xlsx" data-source-line="11" data-uid="lnk22" id="link_TemplateStore_templates/*.xlsx"><path d="M145.64,300.38 C185.56,317.87 235.0643,339.5623 274.9643,357.0423" fill="none" id="TemplateStore-to-templates/*.xlsx" style="stroke:#181818;stroke-width:1;"/><polygon fill="#181818" points="280.46,359.45,273.8215,352.1747,275.8802,357.4436,270.6113,359.5023,280.46,359.45" style="stroke:#181818;stroke-width:1;"/></g><!--SRC=[VT1B2i8m40RWlQS8NGhL6mWY5GHTjO9OYeGuXjWu4v8W0V7kzY52gdMR_vjN31Srby2IWxTSUBPM6jYAy0xMWqtOOyBAfJ5ilwbOcYvOMS3DQEvXnx6fizKmRnjywh_IBV6pGfaB2u1jEcmN3yazMVZ3g0RCK2hiK3ow9raGe0iwAXCjzOisfg3EPw7x31gbWy7nkZrnu7rpgJi9mekIRZwTNHtX6FVljzO5xK8rURu0]--></g></svg>