<svg xmlns="http://www.w3.org/2000/svg" xmlns:xlink="http://www.w3.org/1999/xlink" contentStyleType="text/css" data-diagram-type="SEQUENCE" height="765px" preserveAspectRatio="none" style="width:1002px;height:765px;background:#FFFFFF;" version="1.1" viewBox="0 0 1002 765" width="1002px" zoomAndPan="magnify"><defs/><g><g><title>FileConverter</title><rect fill="#FFFFFF" height="482.125" style="stroke:#181818;stroke-width:1;" width="10" x="484.0659" y="184.6953"/></g><rect fill="none" height="250.1953" style="stroke:#000000;stroke-width:1.5;" width="506.2573" x="424.98" y="257.9609"/><g><title>User</title><rect fill="#000000" fill-opacity="0.00000" height="603.5234" width="8" x="19.9551" y="81.2969"/><line style="stroke:#181818;stroke-width:0.5;stroke-dasharray:5.0,5.0;" x1="23" x2="23" y1="81.2969" y2="684.8203"/></g><g><title>UI</title><rect fill="#000000" fill-opacity="0.00000" height="603.5234" width="8" x="227.4722" y="81.2969"/><line style="stroke:#181818;stroke-width:0.5;stroke-dasharray:5.0,5.0;" x1="231.2842" x2="231.2842" y1="81.2969" y2="684.8203"/></g><g><title>FileConverter</title><rect fill="#000000" fill-opacity="0.00000" height="603.5234" width="8" x="485.0659" y="81.2969"/><line style="stroke:#181818;stroke-width:0.5;stroke-dasharray:5.0,5.0;" x1="488.98" x2="488.98" y1="81.2969" y2="684.8203"/></g><g><title>ExcelReader</title><rect fill="#000000" fill-opacity="0.00000" height="603.5234" width="8" x="662.1187" y="81.2969"/><line style="stroke:#181818;stroke-width:0.5;stroke-dasharray:5.0,5.0;" x1="665.3652" x2="665.3652" y1="81.2969" y2="684.8203"/></g><g><title>TokenEngine</title><rect fill="#000000" fill-opacity="0.00000" height="603.5234" width="8" x="775.2183" y="81.2969"/><line style="stroke:#181818;stroke-width:0.5;stroke-dasharray:5.0,5.0;" x1="778.8721" x2="778.8721" y1="81.2969" y2="684.8203"/></g><g><title>TxtWriter</title><rect fill="#000000" fill-opacity="0.00000" height="603.5234" width="8" x="877.4009" y="81.2969"/><line style="stroke:#181818;stroke-width:0.5;stroke-dasharray:5.0,5.0;" x1="880.5645" x2="880.5645" y1="81.2969" y2="684.8203"/></g><g><title>Zipper</title><rect fill="#000000" fill-opacity="0.00000" height="603.5234" width="8" x="957.0488" y="81.2969"/><line style="stroke:#181818;stroke-width:0.5;stroke-dasharray:5.0,5.0;" x1="960.2373" x2="960.2373" y1="81.2969" y2="684.8203"/></g><g class="participant participant-head" data-participant="User"><text fill="#000000" font-family="sans-serif" font-size="14" lengthAdjust="spacing" textLength="31.9102" x="5" y="77.9951">User</text><ellipse cx="23.9551" cy="13.5" fill="#E2E2F0" rx="8" ry="8" style="stroke:#181818;stroke-width:0.5;"/><path d="M23.9551,21.5 L23.9551,48.5 M10.9551,29.5 L36.9551,29.5 M23.9551,48.5 L10.9551,63.5 M23.9551,48.5 L36.9551,63.5" fill="none" style="stroke:#181818;stroke-width:0.5;"/></g><g class="participant participant-tail" data-participant="User"><text fill="#000000" font-family="sans-serif" font-size="14" lengthAdjust="spacing" textLength="31.9102" x="5" y="696.8154">User</text><ellipse cx="23.9551" cy="708.6172" fill="#E2E2F0" rx="8" ry="8" style="stroke:#181818;stroke-width:0.5;"/><path d="M23.9551,716.6172 L23.9551,743.6172 M10.9551,724.6172 L36.9551,724.6172 M23.9551,743.6172 L10.9551,758.6172 M23.9551,743.6172 L36.9551,758.6172" fill="none" style="stroke:#181818;stroke-width:0.5;"/></g><g class="participant participant-head" data-participant="UI"><rect fill="#E2E2F0" height="30.2969" rx="2.5" ry="2.5" style="stroke:#181818;stroke-width:0.5;" width="28.376" x="217.2842" y="50"/><text fill="#000000" font-family="sans-serif" font-size="14" lengthAdjust="spacing" textLength="14.376" x="224.2842" y="69.9951">UI</text></g><g class="participant participant-tail" data-participant="UI"><rect fill="#E2E2F0" height="30.2969" rx="2.5" ry="2.5" style="stroke:#181818;stroke-width:0.5;" width="28.376" x="217.2842" y="683.8203"/><text fill="#000000" font-family="sans-serif" font-size="14" lengthAdjust="spacing" textLength="14.376" x="224.2842" y="703.8154">UI</text></g><g class="participant participant-head" data-participant="FileConverter"><rect fill="#E2E2F0" height="30.2969" rx="2.5" ry="2.5" style="stroke:#181818;stroke-width:0.5;" width="108.1719" x="434.98" y="50"/><text fill="#000000" font-family="sans-serif" font-size="14" lengthAdjust="spacing" textLength="94.1719" x="441.98" y="69.9951">FileConverter</text></g><g class="participant participant-tail" data-participant="FileConverter"><rect fill="#E2E2F0" height="30.2969" rx="2.5" ry="2.5" style="stroke:#181818;stroke-width:0.5;" width="108.1719" x="434.98" y="683.8203"/><text fill="#000000" font-family="sans-serif" font-size="14" lengthAdjust="spacing" textLength="94.1719" x="441.98" y="703.8154">FileConverter</text></g><g class="participant participant-head" data-participant="ExcelReader"><rect fill="#E2E2F0" height="30.2969" rx="2.5" ry="2.5" style="stroke:#181818;stroke-width:0.5;" width="101.5068" x="615.3652" y="50"/><text fill="#000000" font-family="sans-serif" font-size="14" lengthAdjust="spacing" textLength="87.5068" x="622.3652" y="69.9951">ExcelReader</text></g><g class="participant participant-tail" data-participant="ExcelReader"><rect fill="#E2E2F0" height="30.2969" rx="2.5" ry="2.5" style="stroke:#181818;stroke-width:0.5;" width="101.5068" x="615.3652" y="683.8203"/><text fill="#000000" font-family="sans-serif" font-size="14" lengthAdjust="spacing" textLength="87.5068" x="622.3652" y="703.8154">ExcelReader</text></g><g class="participant participant-head" data-participant="TokenEngine"><rect fill="#E2E2F0" height="30.2969" rx="2.5" ry="2.5" style="stroke:#181818;stroke-width:0.5;" width="104.6924" x="726.8721" y="50"/><text fill="#000000" font-family="sans-serif" font-size="14" lengthAdjust="spacing" textLength="90.6924" x="733.8721" y="69.9951">TokenEngine</text></g><g class="participant participant-tail" data-participant="TokenEngine"><rect fill="#E2E2F0" height="30.2969" rx="2.5" ry="2.5" style="stroke:#181818;stroke-width:0.5;" width="104.6924" x="726.8721" y="683.8203"/><text fill="#000000" font-family="sans-serif" font-size="14" lengthAdjust="spacing" textLength="90.6924" x="733.8721" y="703.8154">TokenEngine</text></g><g class="participant participant-head" data-participant="TxtWriter"><rect fill="#E2E2F0" height="30.2969" rx="2.5" ry="2.5" style="stroke:#181818;stroke-width:0.5;" width="79.6729" x="841.5645" y="50"/><text fill="#000000" font-family="sans-serif" font-size="14" lengthAdjust="spacing" textLength="65.6729" x="848.5645" y="69.9951">TxtWriter</text></g><g class="participant participant-tail" data-participant="TxtWriter"><rect fill="#E2E2F0" height="30.2969" rx="2.5" ry="2.5" style="stroke:#181818;stroke-width:0.5;" width="79.6729" x="841.5645" y="683.8203"/><text fill="#000000" font-family="sans-serif" font-size="14" lengthAdjust="spacing" textLength="65.6729" x="848.5645" y="703.8154">TxtWriter</text></g><g class="participant participant-head" data-participant="Zipper"><rect fill="#E2E2F0" height="30.2969" rx="2.5" ry="2.5" style="stroke:#181818;stroke-width:0.5;" width="59.623" x="931.2373" y="50"/><text fill="#000000" font-family="sans-serif" font-size="14" lengthAdjust="spacing" textLength="45.623" x="938.2373" y="69.9951">Zipper</text></g><g class="participant participant-tail" data-participant="Zipper"><rect fill="#E2E2F0" height="30.2969" rx="2.5" ry="2.5" style="stroke:#181818;stroke-width:0.5;" width="59.623" x="931.2373" y="683.8203"/><text fill="#000000" font-family="sans-serif" font-size="14" lengthAdjust="spacing" textLength="45.623" x="938.2373" y="703.8154">Zipper</text></g><g><title>FileConverter</title><rect fill="#FFFFFF" height="482.125" style="stroke:#181818;stroke-width:1;" width="10" x="484.0659" y="184.6953"/></g><rect fill="#EEEEEE" height="3" style="stroke:#EEEEEE;stroke-width:1;" width="995.8604" x="0" y="111.8633"/><line style="stroke:#000000;stroke-width:1;" x1="0" x2="995.8604" y1="111.8633" y2="111.8633"/><line style="stroke:#000000;stroke-width:1;" x1="0" x2="995.8604" y1="114.8633" y2="114.8633"/><rect fill="#EEEEEE" height="23.1328" style="stroke:#000000;stroke-width:2;" width="121.6626" x="437.0989" y="101.2969"/><text fill="#000000" font-family="sans-serif" font-size="13" font-weight="bold" lengthAdjust="spacing" textLength="103.1367" x="443.0989" y="117.3638">Begin Process</text><g class="message" data-participant-1="User" data-participant-2="UI"><polygon fill="#181818" points="219.4722,151.5625,229.4722,155.5625,219.4722,159.5625,223.4722,155.5625" style="stroke:#181818;stroke-width:1;"/><line style="stroke:#181818;stroke-width:1;" x1="23.9551" x2="225.4722" y1="155.5625" y2="155.5625"/><text fill="#000000" font-family="sans-serif" font-size="13" lengthAdjust="spacing" textLength="183.5171" x="30.9551" y="150.4966">Select Excel file + Template</text></g><g class="message" data-participant-1="UI" data-participant-2="FileConverter"><polygon fill="#181818" points="472.0659,180.6953,482.0659,184.6953,472.0659,188.6953,476.0659,184.6953" style="stroke:#181818;stroke-width:1;"/><line style="stroke:#181818;stroke-width:1;" x1="231.4722" x2="478.0659" y1="184.6953" y2="184.6953"/><text fill="#000000" font-family="sans-serif" font-size="13" lengthAdjust="spacing" textLength="233.5938" x="238.4722" y="179.6294">convert(excel_file, template_config)</text></g><g class="message" data-participant-1="FileConverter" data-participant-2="ExcelReader"><polygon fill="#181818" points="654.1187,209.8281,664.1187,213.8281,654.1187,217.8281,658.1187,213.8281" style="stroke:#181818;stroke-width:1;"/><line style="stroke:#181818;stroke-width:1;" x1="494.0659" x2="660.1187" y1="213.8281" y2="213.8281"/><text fill="#000000" font-family="sans-serif" font-size="13" lengthAdjust="spacing" textLength="148.0527" x="501.0659" y="208.7622">load_sheets(excel_file)</text></g><g class="message" data-participant-1="ExcelReader" data-participant-2="FileConverter"><polygon fill="#181818" points="505.0659,238.9609,495.0659,242.9609,505.0659,246.9609,501.0659,242.9609" style="stroke:#181818;stroke-width:1;"/><line style="stroke:#181818;stroke-width:1;stroke-dasharray:2.0,2.0;" x1="499.0659" x2="665.1187" y1="242.9609" y2="242.9609"/><text fill="#000000" font-family="sans-serif" font-size="13" lengthAdjust="spacing" textLength="87.5024" x="511.0659" y="237.895">list_of_sheets</text></g><path d="M424.98,257.9609 L501.604,257.9609 L501.604,265.0938 L491.604,275.0938 L424.98,275.0938 L424.98,257.9609" fill="#EEEEEE" style="stroke:#000000;stroke-width:1.5;"/><rect fill="none" height="250.1953" style="stroke:#000000;stroke-width:1.5;" width="506.2573" x="424.98" y="257.9609"/><text fill="#000000" font-family="sans-serif" font-size="13" font-weight="bold" lengthAdjust="spacing" textLength="31.624" x="439.98" y="271.0278">loop</text><text fill="#000000" font-family="sans-serif" font-size="11" font-weight="bold" lengthAdjust="spacing" textLength="102.0024" x="516.604" y="270.1714">[For each sheet]</text><g class="message" data-participant-1="FileConverter" data-participant-2="ExcelReader"><polygon fill="#181818" points="654.1187,292.2266,664.1187,296.2266,654.1187,300.2266,658.1187,296.2266" style="stroke:#181818;stroke-width:1;"/><line style="stroke:#181818;stroke-width:1;" x1="494.0659" x2="660.1187" y1="296.2266" y2="296.2266"/><text fill="#000000" font-family="sans-serif" font-size="13" lengthAdjust="spacing" textLength="118.4155" x="501.0659" y="291.1606">read_sheet(sheet)</text></g><g class="message" data-participant-1="ExcelReader" data-participant-2="FileConverter"><polygon fill="#181818" points="505.0659,321.3594,495.0659,325.3594,505.0659,329.3594,501.0659,325.3594" style="stroke:#181818;stroke-width:1;"/><line style="stroke:#181818;stroke-width:1;stroke-dasharray:2.0,2.0;" x1="499.0659" x2="665.1187" y1="325.3594" y2="325.3594"/><text fill="#000000" font-family="sans-serif" font-size="13" lengthAdjust="spacing" textLength="74.3311" x="511.0659" y="320.2935">data_frame</text></g><g class="message" data-participant-1="FileConverter" data-participant-2="TokenEngine"><polygon fill="#181818" points="767.2183,350.4922,777.2183,354.4922,767.2183,358.4922,771.2183,354.4922" style="stroke:#181818;stroke-width:1;"/><line style="stroke:#181818;stroke-width:1;" x1="494.0659" x2="773.2183" y1="354.4922" y2="354.4922"/><text fill="#000000" font-family="sans-serif" font-size="13" lengthAdjust="spacing" textLength="170.5615" x="501.0659" y="349.4263">generate_header(context)</text></g><g class="message" data-participant-1="TokenEngine" data-participant-2="FileConverter"><polygon fill="#181818" points="505.0659,379.625,495.0659,383.625,505.0659,387.625,501.0659,383.625" style="stroke:#181818;stroke-width:1;"/><line style="stroke:#181818;stroke-width:1;stroke-dasharray:2.0,2.0;" x1="499.0659" x2="778.2183" y1="383.625" y2="383.625"/><text fill="#000000" font-family="sans-serif" font-size="13" lengthAdjust="spacing" textLength="75.7593" x="511.0659" y="378.5591">header_line</text></g><g class="message" data-participant-1="FileConverter" data-participant-2="TokenEngine"><polygon fill="#181818" points="767.2183,408.7578,777.2183,412.7578,767.2183,416.7578,771.2183,412.7578" style="stroke:#181818;stroke-width:1;"/><line style="stroke:#181818;stroke-width:1;" x1="494.0659" x2="773.2183" y1="412.7578" y2="412.7578"/><text fill="#000000" font-family="sans-serif" font-size="13" lengthAdjust="spacing" textLength="163.7378" x="501.0659" y="407.6919">generate_trailer(context)</text></g><g class="message" data-participant-1="TokenEngine" data-participant-2="FileConverter"><polygon fill="#181818" points="505.0659,437.8906,495.0659,441.8906,505.0659,445.8906,501.0659,441.8906" style="stroke:#181818;stroke-width:1;"/><line style="stroke:#181818;stroke-width:1;stroke-dasharray:2.0,2.0;" x1="499.0659" x2="778.2183" y1="441.8906" y2="441.8906"/><text fill="#000000" font-family="sans-serif" font-size="13" lengthAdjust="spacing" textLength="68.9355" x="511.0659" y="436.8247">trailer_line</text></g><g class="message" data-participant-1="FileConverter" data-participant-2="TxtWriter"><polygon fill="#181818" points="869.4009,467.0234,879.4009,471.0234,869.4009,475.0234,873.4009,471.0234" style="stroke:#181818;stroke-width:1;"/><line style="stroke:#181818;stroke-width:1;" x1="494.0659" x2="875.4009" y1="471.0234" y2="471.0234"/><text fill="#000000" font-family="sans-serif" font-size="13" lengthAdjust="spacing" textLength="224.0977" x="501.0659" y="465.9575">write_txt_file(header, data, trailer)</text></g><g class="message" data-participant-1="TxtWriter" data-participant-2="FileConverter"><polygon fill="#181818" points="505.0659,496.1563,495.0659,500.1563,505.0659,504.1563,501.0659,500.1563" style="stroke:#181818;stroke-width:1;"/><line style="stroke:#181818;stroke-width:1;stroke-dasharray:2.0,2.0;" x1="499.0659" x2="880.4009" y1="500.1563" y2="500.1563"/><text fill="#000000" font-family="sans-serif" font-size="13" lengthAdjust="spacing" textLength="55.853" x="511.0659" y="495.0903">file_path</text></g><rect fill="#EEEEEE" height="3" style="stroke:#EEEEEE;stroke-width:1;" width="995.8604" x="0" y="535.7227"/><line style="stroke:#000000;stroke-width:1;" x1="0" x2="995.8604" y1="535.7227" y2="535.7227"/><line style="stroke:#000000;stroke-width:1;" x1="0" x2="995.8604" y1="538.7227" y2="538.7227"/><rect fill="#EEEEEE" height="23.1328" style="stroke:#000000;stroke-width:2;" width="144.6157" x="425.6223" y="525.1563"/><text fill="#000000" font-family="sans-serif" font-size="13" font-weight="bold" lengthAdjust="spacing" textLength="126.0898" x="431.6223" y="541.2231">Compilation Step</text><g class="message" data-participant-1="FileConverter" data-participant-2="Zipper"><polygon fill="#181818" points="949.0488,575.4219,959.0488,579.4219,949.0488,583.4219,953.0488,579.4219" style="stroke:#181818;stroke-width:1;"/><line style="stroke:#181818;stroke-width:1;" x1="494.0659" x2="955.0488" y1="579.4219" y2="579.4219"/><text fill="#000000" font-family="sans-serif" font-size="13" lengthAdjust="spacing" textLength="107.98" x="501.0659" y="574.356">zip_all_txt_files()</text></g><g class="message" data-participant-1="Zipper" data-participant-2="FileConverter"><polygon fill="#181818" points="505.0659,604.5547,495.0659,608.5547,505.0659,612.5547,501.0659,608.5547" style="stroke:#181818;stroke-width:1;"/><line style="stroke:#181818;stroke-width:1;stroke-dasharray:2.0,2.0;" x1="499.0659" x2="960.0488" y1="608.5547" y2="608.5547"/><text fill="#000000" font-family="sans-serif" font-size="13" lengthAdjust="spacing" textLength="54.7422" x="511.0659" y="603.4888">zip_path</text></g><g class="message" data-participant-1="FileConverter" data-participant-2="UI"><polygon fill="#181818" points="242.4722,633.6875,232.4722,637.6875,242.4722,641.6875,238.4722,637.6875" style="stroke:#181818;stroke-width:1;"/><line style="stroke:#181818;stroke-width:1;stroke-dasharray:2.0,2.0;" x1="236.4722" x2="483.0659" y1="637.6875" y2="637.6875"/><text fill="#000000" font-family="sans-serif" font-size="13" lengthAdjust="spacing" textLength="99.1377" x="248.4722" y="632.6216">return zip_path</text></g><g class="message" data-participant-1="UI" data-participant-2="User"><polygon fill="#181818" points="34.9551,662.8203,24.9551,666.8203,34.9551,670.8203,30.9551,666.8203" style="stroke:#181818;stroke-width:1;"/><line style="stroke:#181818;stroke-width:1;stroke-dasharray:2.0,2.0;" x1="28.9551" x2="230.4722" y1="666.8203" y2="666.8203"/><text fill="#000000" font-family="sans-serif" font-size="13" lengthAdjust="spacing" textLength="152.6167" x="40.9551" y="661.7544">Show success message</text></g><!--SRC=[bLFDJiCm3BxdANpin7W1f79WsYHkY6r2uX95gRT6P4cKU3_YwN6wRhIbQ72fKkVxI-meJJx2Ec4KGKKosWJb2DRFlT-5iJZpxe2H1i3vIQDzHLKDwYl_WMxkjiPXltwYjsY6Akyc12wL9JmXK-0bUeqfGLcA70tk7paHFC0IBUhM53OS2kvWXRjW5Q5W1EDwKPcYp-i2CqTcpXIefKZUt9ZjH2XDvi25mK7xMYpUEIrBMwygcMf4IXtvYUYYxaSYMPD8-arB5TRx00lk0YfTGrCKSCCwuiMwQBuJ0RTSAqLARgBQuOXwfrqCtQB3cE-dRkGAlYR2KpRfuiPCpWHfSzl_x49HCV8_DYtZLv_Ba37qc1UIJjGqfpW7d3QtCRtePCShPSmlKsLGL0jq5UI6vLcT-LqmF4V6ErWIXZokFxASHvirFasGojfhb5HCHBivPfdXZUD0yV8K8j8-kczOdlwybnhsilP7I7lTlA8TVzGMHONZS_u5]--></g></svg>