<svg xmlns="http://www.w3.org/2000/svg" xmlns:xlink="http://www.w3.org/1999/xlink" contentStyleType="text/css" data-diagram-type="ACTIVITY" height="784px" preserveAspectRatio="none" style="width:339px;height:784px;background:#FFFFFF;" version="1.1" viewBox="0 0 339 784" width="339px" zoomAndPan="magnify"><defs/><g><ellipse cx="156.4424" cy="20" fill="#222222" rx="10" ry="10" style="stroke:#222222;stroke-width:1;"/><rect fill="#F1F1F1" height="33.9688" rx="12.5" ry="12.5" style="stroke:#181818;stroke-width:0.5;" width="149.7031" x="81.5908" y="50"/><text fill="#000000" font-family="sans-serif" font-size="12" lengthAdjust="spacing" textLength="129.7031" x="91.5908" y="71.1387">Load template_config</text><rect fill="#F1F1F1" height="33.9688" rx="12.5" ry="12.5" style="stroke:#181818;stroke-width:0.5;" width="109.9531" x="101.4658" y="103.9688"/><text fill="#000000" font-family="sans-serif" font-size="12" lengthAdjust="spacing" textLength="89.9531" x="111.4658" y="125.1074">Open Excel file</text><rect fill="#F1F1F1" height="33.9688" rx="12.5" ry="12.5" style="stroke:#181818;stroke-width:0.5;" width="290.8848" x="11" y="211.9063"/><text fill="#000000" font-family="sans-serif" font-size="12" lengthAdjust="spacing" textLength="270.8848" x="21" y="233.0449">Resolve logical name from header_mappings</text><rect fill="#F1F1F1" height="33.9688" rx="12.5" ry="12.5" style="stroke:#181818;stroke-width:0.5;" width="125.9785" x="93.4531" y="265.875"/><text fill="#000000" font-family="sans-serif" font-size="12" lengthAdjust="spacing" textLength="105.9785" x="103.4531" y="287.0137">Extract data rows</text><rect fill="#F1F1F1" height="33.9688" rx="12.5" ry="12.5" style="stroke:#181818;stroke-width:0.5;" width="239.9141" x="36.4854" y="319.8438"/><text fill="#000000" font-family="sans-serif" font-size="12" lengthAdjust="spacing" textLength="219.9141" x="46.4854" y="340.9824">Generate header using TokenEngine</text><rect fill="#F1F1F1" height="33.9688" rx="12.5" ry="12.5" style="stroke:#181818;stroke-width:0.5;" width="171.1777" x="70.8535" y="383.8047"/><text fill="#000000" font-family="sans-serif" font-size="12" lengthAdjust="spacing" textLength="151.1777" x="80.8535" y="404.9434">Write rows with delimiter</text><rect fill="#F1F1F1" height="33.9688" rx="12.5" ry="12.5" style="stroke:#181818;stroke-width:0.5;" width="115.8359" x="98.5244" y="437.7734"/><text fill="#000000" font-family="sans-serif" font-size="12" lengthAdjust="spacing" textLength="95.8359" x="108.5244" y="458.9121">Generate trailer</text><rect fill="#F1F1F1" height="33.9688" rx="12.5" ry="12.5" style="stroke:#181818;stroke-width:0.5;" width="132.166" x="90.3594" y="491.7422"/><text fill="#000000" font-family="sans-serif" font-size="12" lengthAdjust="spacing" textLength="112.166" x="100.3594" y="512.8809">Generate filename</text><rect fill="#F1F1F1" height="33.9688" rx="12.5" ry="12.5" style="stroke:#181818;stroke-width:0.5;" width="185.9316" x="63.4766" y="157.9375"/><text fill="#000000" font-family="sans-serif" font-size="12" lengthAdjust="spacing" textLength="165.9316" x="73.4766" y="179.0762">For each sheet in workbook</text><polygon fill="#F1F1F1" points="119.2664,545.7109,193.6184,545.7109,205.6184,557.7109,193.6184,569.7109,119.2664,569.7109,107.2664,557.7109,119.2664,545.7109" style="stroke:#181818;stroke-width:0.5;"/><text fill="#000000" font-family="sans-serif" font-size="11" lengthAdjust="spacing" textLength="74.3521" x="119.2664" y="561.519">more sheets?</text><text fill="#000000" font-family="sans-serif" font-size="11" lengthAdjust="spacing" textLength="19.0083" x="205.6184" y="555.1167">yes</text><rect fill="#F1F1F1" height="33.9688" rx="12.5" ry="12.5" style="stroke:#181818;stroke-width:0.5;" width="212.0469" x="50.4189" y="589.7109"/><text fill="#000000" font-family="sans-serif" font-size="12" lengthAdjust="spacing" textLength="192.0469" x="60.4189" y="610.8496">Save all TXT files to temp folder</text><rect fill="#F1F1F1" height="33.9688" rx="12.5" ry="12.5" style="stroke:#181818;stroke-width:0.5;" width="112.0449" x="100.4199" y="643.6797"/><text fill="#000000" font-family="sans-serif" font-size="12" lengthAdjust="spacing" textLength="92.0449" x="110.4199" y="664.8184">Zip all TXT files</text><rect fill="#F1F1F1" height="33.9688" rx="12.5" ry="12.5" style="stroke:#181818;stroke-width:0.5;" width="136.5664" x="88.1592" y="697.6484"/><text fill="#000000" font-family="sans-serif" font-size="12" lengthAdjust="spacing" textLength="116.5664" x="98.1592" y="718.7871">Return ZIP file path</text><ellipse cx="156.4424" cy="762.6172" fill="none" rx="11" ry="11" style="stroke:#222222;stroke-width:1;"/><ellipse cx="156.4424" cy="762.6172" fill="#222222" rx="6" ry="6" style="stroke:#222222;stroke-width:1;"/><line style="stroke:#181818;stroke-width:1;" x1="156.4424" x2="156.4424" y1="30" y2="50"/><polygon fill="#181818" points="152.4424,40,156.4424,50,160.4424,40,156.4424,44" style="stroke:#181818;stroke-width:1;"/><line style="stroke:#181818;stroke-width:1;" x1="156.4424" x2="156.4424" y1="83.9688" y2="103.9688"/><polygon fill="#181818" points="152.4424,93.9688,156.4424,103.9688,160.4424,93.9688,156.4424,97.9688" style="stroke:#181818;stroke-width:1;"/><line style="stroke:#181818;stroke-width:1;" x1="156.4424" x2="156.4424" y1="245.875" y2="265.875"/><polygon fill="#181818" points="152.4424,255.875,156.4424,265.875,160.4424,255.875,156.4424,259.875" style="stroke:#181818;stroke-width:1;"/><line style="stroke:#181818;stroke-width:1;" x1="156.4424" x2="156.4424" y1="299.8438" y2="319.8438"/><polygon fill="#181818" points="152.4424,309.8438,156.4424,319.8438,160.4424,309.8438,156.4424,313.8438" style="stroke:#181818;stroke-width:1;"/><line style="stroke:#181818;stroke-width:1;" x1="156.4424" x2="156.4424" y1="353.8125" y2="383.8047"/><polygon fill="#181818" points="152.4424,373.8047,156.4424,383.8047,160.4424,373.8047,156.4424,377.8047" style="stroke:#181818;stroke-width:1;"/><line style="stroke:#181818;stroke-width:1;" x1="156.4424" x2="156.4424" y1="417.7734" y2="437.7734"/><polygon fill="#181818" points="152.4424,427.7734,156.4424,437.7734,160.4424,427.7734,156.4424,431.7734" style="stroke:#181818;stroke-width:1;"/><line style="stroke:#181818;stroke-width:1;" x1="156.4424" x2="156.4424" y1="471.7422" y2="491.7422"/><polygon fill="#181818" points="152.4424,481.7422,156.4424,491.7422,160.4424,481.7422,156.4424,485.7422" style="stroke:#181818;stroke-width:1;"/><line style="stroke:#181818;stroke-width:1;" x1="156.4424" x2="156.4424" y1="191.9063" y2="211.9063"/><polygon fill="#181818" points="152.4424,201.9063,156.4424,211.9063,160.4424,201.9063,156.4424,205.9063" style="stroke:#181818;stroke-width:1;"/><line style="stroke:#181818;stroke-width:1;" x1="205.6184" x2="313.8848" y1="557.7109" y2="557.7109"/><polygon fill="#181818" points="309.8848,373.8125,313.8848,363.8125,317.8848,373.8125,313.8848,369.8125" style="stroke:#181818;stroke-width:1;"/><line style="stroke:#181818;stroke-width:1;" x1="313.8848" x2="313.8848" y1="174.9219" y2="557.7109"/><line style="stroke:#181818;stroke-width:1;" x1="313.8848" x2="249.4082" y1="174.9219" y2="174.9219"/><polygon fill="#181818" points="259.4082,170.9219,249.4082,174.9219,259.4082,178.9219,255.4082,174.9219" style="stroke:#181818;stroke-width:1;"/><line style="stroke:#181818;stroke-width:1;" x1="156.4424" x2="156.4424" y1="525.7109" y2="545.7109"/><polygon fill="#181818" points="152.4424,535.7109,156.4424,545.7109,160.4424,535.7109,156.4424,539.7109" style="stroke:#181818;stroke-width:1;"/><line style="stroke:#181818;stroke-width:1;" x1="156.4424" x2="156.4424" y1="137.9375" y2="157.9375"/><polygon fill="#181818" points="152.4424,147.9375,156.4424,157.9375,160.4424,147.9375,156.4424,151.9375" style="stroke:#181818;stroke-width:1;"/><line style="stroke:#181818;stroke-width:1;" x1="156.4424" x2="156.4424" y1="569.7109" y2="589.7109"/><polygon fill="#181818" points="152.4424,579.7109,156.4424,589.7109,160.4424,579.7109,156.4424,583.7109" style="stroke:#181818;stroke-width:1;"/><line style="stroke:#181818;stroke-width:1;" x1="156.4424" x2="156.4424" y1="623.6797" y2="643.6797"/><polygon fill="#181818" points="152.4424,633.6797,156.4424,643.6797,160.4424,633.6797,156.4424,637.6797" style="stroke:#181818;stroke-width:1;"/><line style="stroke:#181818;stroke-width:1;" x1="156.4424" x2="156.4424" y1="677.6484" y2="697.6484"/><polygon fill="#181818" points="152.4424,687.6484,156.4424,697.6484,160.4424,687.6484,156.4424,691.6484" style="stroke:#181818;stroke-width:1;"/><line style="stroke:#181818;stroke-width:1;" x1="156.4424" x2="156.4424" y1="731.6172" y2="751.6172"/><polygon fill="#181818" points="152.4424,741.6172,156.4424,751.6172,160.4424,741.6172,156.4424,745.6172" style="stroke:#181818;stroke-width:1;"/><!--SRC=[LP31JiD034Jl-Oevjh-G7ZW5X8G4ef50lLGcSP9LTjShhqlAtxC92D7hqnjhnjb8hQgVX7eOX-J9-Dn97DnugEhdn17DjMEFmNa-LCg9oL3VYuAfcv0dPeEBM4Jd3v6vf5uvY_zaU1bTHnwH0cDG2PYOUjPpe9HS77DncwifTOQUZA2ohEo18slfyQlZaekCLcQEJHnTB3tgDtL5M0DOd4tesRjGaFxFbzEbzGrQPwnz_gOiKo7O1L7-6PFlzd0Pko_E-we-KXb2tgDzRxTmXidsAGpY- -tuoQLRPVk1NJJYzFYo8IIowL1ba_GD]--></g></svg>