<svg xmlns="http://www.w3.org/2000/svg" xmlns:xlink="http://www.w3.org/1999/xlink" contentStyleType="text/css" data-diagram-type="DESCRIPTION" height="492px" preserveAspectRatio="none" style="width:936px;height:492px;background:#FFFFFF;" version="1.1" viewBox="0 0 936 492" width="936px" zoomAndPan="magnify"><defs/><g><!--cluster Main Window--><g class="cluster" data-entity="Main Window" data-source-line="2" data-uid="ent0002" id="cluster_Main Window"><path d="M52.5,6 L159.2998,6 A3.75,3.75 0 0 1 161.7998,8.5 L168.7998,28.2969 L579.5,28.2969 A2.5,2.5 0 0 1 582,30.7969 L582,223.1 A2.5,2.5 0 0 1 579.5,225.6 L52.5,225.6 A2.5,2.5 0 0 1 50,223.1 L50,8.5 A2.5,2.5 0 0 1 52.5,6" fill="none" style="stroke:#000000;stroke-width:1.5;"/><line style="stroke:#000000;stroke-width:1.5;" x1="50" x2="168.7998" y1="28.2969" y2="28.2969"/><text fill="#000000" font-family="sans-serif" font-size="14" font-weight="bold" lengthAdjust="spacing" textLength="105.7998" x="54" y="20.9951">Main Window</text></g><!--cluster Settings Panel--><g class="cluster" data-entity="Settings Panel" data-source-line="13" data-uid="ent0012" id="cluster_Settings Panel"><path d="M8.5,265.6 L124.4258,265.6 A3.75,3.75 0 0 1 126.9258,268.1 L133.9258,287.8969 L473.5,287.8969 A2.5,2.5 0 0 1 476,290.3969 L476,482.69 A2.5,2.5 0 0 1 473.5,485.19 L8.5,485.19 A2.5,2.5 0 0 1 6,482.69 L6,268.1 A2.5,2.5 0 0 1 8.5,265.6" fill="none" style="stroke:#000000;stroke-width:1.5;"/><line style="stroke:#000000;stroke-width:1.5;" x1="6" x2="133.9258" y1="287.8969" y2="287.8969"/><text fill="#000000" font-family="sans-serif" font-size="14" font-weight="bold" lengthAdjust="spacing" textLength="114.9258" x="10" y="280.5951">Settings Panel</text></g><!--entity Extract Tab--><g class="entity" data-entity="Extract Tab" data-source-line="3" data-uid="ent0003" id="entity_Extract Tab"><rect fill="#F1F1F1" height="46.2969" rx="2.5" ry="2.5" style="stroke:#181818;stroke-width:0.5;" width="120.6094" x="73.7" y="49"/><rect fill="#F1F1F1" height="10" style="stroke:#181818;stroke-width:0.5;" width="15" x="174.3094" y="54"/><rect fill="#F1F1F1" height="2" style="stroke:#181818;stroke-width:0.5;" width="4" x="172.3094" y="56"/><rect fill="#F1F1F1" height="2" style="stroke:#181818;stroke-width:0.5;" width="4" x="172.3094" y="60"/><text fill="#000000" font-family="sans-serif" font-size="14" lengthAdjust="spacing" textLength="80.6094" x="88.7" y="81.9951">Extract Tab</text></g><!--entity Convert Tab--><g class="entity" data-entity="Convert Tab" data-source-line="4" data-uid="ent0004" id="entity_Convert Tab"><rect fill="#F1F1F1" height="46.2969" rx="2.5" ry="2.5" style="stroke:#181818;stroke-width:0.5;" width="125.8252" x="229.09" y="49"/><rect fill="#F1F1F1" height="10" style="stroke:#181818;stroke-width:0.5;" width="15" x="334.9152" y="54"/><rect fill="#F1F1F1" height="2" style="stroke:#181818;stroke-width:0.5;" width="4" x="332.9152" y="56"/><rect fill="#F1F1F1" height="2" style="stroke:#181818;stroke-width:0.5;" width="4" x="332.9152" y="60"/><text fill="#000000" font-family="sans-serif" font-size="14" lengthAdjust="spacing" textLength="85.8252" x="244.09" y="81.9951">Convert Tab</text></g><!--entity Settings Button--><g class="entity" data-entity="Settings Button" data-source-line="5" data-uid="ent0005" id="entity_Settings Button"><rect fill="#F1F1F1" height="46.2969" rx="2.5" ry="2.5" style="stroke:#181818;stroke-width:0.5;" width="148.7666" x="389.62" y="49"/><rect fill="#F1F1F1" height="10" style="stroke:#181818;stroke-width:0.5;" width="15" x="518.3866" y="54"/><rect fill="#F1F1F1" height="2" style="stroke:#181818;stroke-width:0.5;" width="4" x="516.3866" y="56"/><rect fill="#F1F1F1" height="2" style="stroke:#181818;stroke-width:0.5;" width="4" x="516.3866" y="60"/><text fill="#000000" font-family="sans-serif" font-size="14" lengthAdjust="spacing" textLength="108.7666" x="404.62" y="81.9951">Settings Button</text></g><!--entity Template Dropdown--><g class="entity" data-entity="Template Dropdown" data-source-line="6" data-uid="ent0006" id="entity_Template Dropdown"><rect fill="#F1F1F1" height="46.2969" rx="2.5" ry="2.5" style="stroke:#181818;stroke-width:0.5;" width="182.4746" x="232.76" y="155.3"/><rect fill="#F1F1F1" height="10" style="stroke:#181818;stroke-width:0.5;" width="15" x="395.2346" y="160.3"/><rect fill="#F1F1F1" height="2" style="stroke:#181818;stroke-width:0.5;" width="4" x="393.2346" y="162.3"/><rect fill="#F1F1F1" height="2" style="stroke:#181818;stroke-width:0.5;" width="4" x="393.2346" y="166.3"/><text fill="#000000" font-family="sans-serif" font-size="14" lengthAdjust="spacing" textLength="142.4746" x="247.76" y="188.2951">Template Dropdown</text></g><!--entity File Preview--><g class="entity" data-entity="File Preview" data-source-line="7" data-uid="ent0007" id="entity_File Preview"><rect fill="#F1F1F1" height="46.2969" rx="2.5" ry="2.5" style="stroke:#181818;stroke-width:0.5;" width="123.9453" x="74.03" y="155.3"/><rect fill="#F1F1F1" height="10" style="stroke:#181818;stroke-width:0.5;" width="15" x="177.9753" y="160.3"/><rect fill="#F1F1F1" height="2" style="stroke:#181818;stroke-width:0.5;" width="4" x="175.9753" y="162.3"/><rect fill="#F1F1F1" height="2" style="stroke:#181818;stroke-width:0.5;" width="4" x="175.9753" y="166.3"/><text fill="#000000" font-family="sans-serif" font-size="14" lengthAdjust="spacing" textLength="83.9453" x="89.03" y="188.2951">File Preview</text></g><!--entity Template Editor--><g class="entity" data-entity="Template Editor" data-source-line="19" data-uid="ent0018" id="entity_Template Editor"><rect fill="#F1F1F1" height="46.2969" rx="2.5" ry="2.5" style="stroke:#181818;stroke-width:0.5;" width="152.1436" x="29.93" y="308.6"/><rect fill="#F1F1F1" height="10" style="stroke:#181818;stroke-width:0.5;" width="15" x="162.0736" y="313.6"/><rect fill="#F1F1F1" height="2" style="stroke:#181818;stroke-width:0.5;" width="4" x="160.0736" y="315.6"/><rect fill="#F1F1F1" height="2" style="stroke:#181818;stroke-width:0.5;" width="4" x="160.0736" y="319.6"/><text fill="#000000" font-family="sans-serif" font-size="14" lengthAdjust="spacing" textLength="112.1436" x="44.93" y="341.5951">Template Editor</text></g><!--entity Excel Template Uploader--><g class="entity" data-entity="Excel Template Uploader" data-source-line="20" data-uid="ent0019" id="entity_Excel Template Uploader"><rect fill="#F1F1F1" height="46.2969" rx="2.5" ry="2.5" style="stroke:#181818;stroke-width:0.5;" width="215.916" x="217.04" y="308.6"/><rect fill="#F1F1F1" height="10" style="stroke:#181818;stroke-width:0.5;" width="15" x="412.956" y="313.6"/><rect fill="#F1F1F1" height="2" style="stroke:#181818;stroke-width:0.5;" width="4" x="410.956" y="315.6"/><rect fill="#F1F1F1" height="2" style="stroke:#181818;stroke-width:0.5;" width="4" x="410.956" y="319.6"/><text fill="#000000" font-family="sans-serif" font-size="14" lengthAdjust="spacing" textLength="175.916" x="232.04" y="341.5951">Excel Template Uploader</text></g><!--entity Token Helper--><g class="entity" data-entity="Token Helper" data-source-line="21" data-uid="ent0020" id="entity_Token Helper"><rect fill="#F1F1F1" height="46.2969" rx="2.5" ry="2.5" style="stroke:#181818;stroke-width:0.5;" width="133.4473" x="39.28" y="414.89"/><rect fill="#F1F1F1" height="10" style="stroke:#181818;stroke-width:0.5;" width="15" x="152.7273" y="419.89"/><rect fill="#F1F1F1" height="2" style="stroke:#181818;stroke-width:0.5;" width="4" x="150.7273" y="421.89"/><rect fill="#F1F1F1" height="2" style="stroke:#181818;stroke-width:0.5;" width="4" x="150.7273" y="425.89"/><text fill="#000000" font-family="sans-serif" font-size="14" lengthAdjust="spacing" textLength="93.4473" x="54.28" y="447.8851">Token Helper</text></g><!--entity Loading Overlay--><g class="entity" data-entity="Loading Overlay" data-source-line="14" data-uid="ent0014" id="entity_Loading Overlay"><rect fill="#F1F1F1" height="46.2969" rx="2.5" ry="2.5" style="stroke:#181818;stroke-width:0.5;" width="154.3584" x="775.82" y="155.3"/><rect fill="#F1F1F1" height="10" style="stroke:#181818;stroke-width:0.5;" width="15" x="910.1784" y="160.3"/><rect fill="#F1F1F1" height="2" style="stroke:#181818;stroke-width:0.5;" width="4" x="908.1784" y="162.3"/><rect fill="#F1F1F1" height="2" style="stroke:#181818;stroke-width:0.5;" width="4" x="908.1784" y="166.3"/><text fill="#000000" font-family="sans-serif" font-size="14" lengthAdjust="spacing" textLength="114.3584" x="790.82" y="188.2951">Loading Overlay</text></g><!--entity Error Log Tab--><g class="entity" data-entity="Error Log Tab" data-source-line="15" data-uid="ent0016" id="entity_Error Log Tab"><rect fill="#F1F1F1" height="46.2969" rx="2.5" ry="2.5" style="stroke:#181818;stroke-width:0.5;" width="134.8486" x="605.58" y="155.3"/><rect fill="#F1F1F1" height="10" style="stroke:#181818;stroke-width:0.5;" width="15" x="720.4286" y="160.3"/><rect fill="#F1F1F1" height="2" style="stroke:#181818;stroke-width:0.5;" width="4" x="718.4286" y="162.3"/><rect fill="#F1F1F1" height="2" style="stroke:#181818;stroke-width:0.5;" width="4" x="718.4286" y="166.3"/><text fill="#000000" font-family="sans-serif" font-size="14" lengthAdjust="spacing" textLength="94.8486" x="620.58" y="188.2951">Error Log Tab</text></g><!--link Extract Tab to Template Dropdown--><g class="link" data-entity-1="Extract Tab" data-entity-2="Template Dropdown" data-source-line="9" data-uid="lnk8" id="link_Extract Tab_Template Dropdown"><path d="M194.55,65.19 C200.47,65.19 204.33,65.19 204.33,65.19 C204.33,65.19 204.33,171.19 204.33,171.19 C204.33,171.19 210.16,171.19 226.39,171.19" fill="none" id="Extract Tab-to-Template Dropdown" style="stroke:#181818;stroke-width:1;"/><polygon fill="#181818" points="232.39,171.19,223.39,167.19,227.39,171.19,223.39,175.19,232.39,171.19" style="stroke:#181818;stroke-width:1;"/></g><!--link Convert Tab to Template Dropdown--><g class="link" data-entity-1="Convert Tab" data-entity-2="Template Dropdown" data-source-line="10" data-uid="lnk9" id="link_Convert Tab_Template Dropdown"><path d="M293.84,95.74 C293.84,113.36 293.84,131.32 293.84,148.92" fill="none" id="Convert Tab-to-Template Dropdown" style="stroke:#181818;stroke-width:1;"/><polygon fill="#181818" points="293.84,154.92,297.84,145.92,293.84,149.92,289.84,145.92,293.84,154.92" style="stroke:#181818;stroke-width:1;"/></g><!--link Extract Tab to File Preview--><g class="link" data-entity-1="Extract Tab" data-entity-2="File Preview" data-source-line="11" data-uid="lnk10" id="link_Extract Tab_File Preview"><path d="M134.17,95.74 C134.17,113.36 134.17,131.32 134.17,148.92" fill="none" id="Extract Tab-to-File Preview" style="stroke:#181818;stroke-width:1;"/><polygon fill="#181818" points="134.17,154.92,138.17,145.92,134.17,149.92,130.17,145.92,134.17,154.92" style="stroke:#181818;stroke-width:1;"/></g><!--link Convert Tab to File Preview--><g class="link" data-entity-1="Convert Tab" data-entity-2="File Preview" data-source-line="12" data-uid="lnk11" id="link_Convert Tab_File Preview"><path d="M228.73,80.19 C218.23,80.19 210.69,80.19 210.69,80.19 C210.69,80.19 210.69,186.19 210.69,186.19 C210.69,186.19 211.72,186.19 204.35,186.19" fill="none" id="Convert Tab-to-File Preview" style="stroke:#181818;stroke-width:1;"/><polygon fill="#181818" points="198.35,186.19,207.35,190.19,203.35,186.19,207.35,182.19,198.35,186.19" style="stroke:#181818;stroke-width:1;"/></g><!--link Settings Button to Settings Panel--><g class="link" data-entity-1="Settings Button" data-entity-2="Settings Panel" data-source-line="13" data-uid="lnk13" id="link_Settings Button_Settings Panel"><path d="M468,95.65 C468,126.35 468,182.0525 468,231.6438 C468,237.8427 468,243.9461 468,249.8932 C468,252.8668 468,255.8013 468,258.6892 C468,260.1331 468,261.5654 468,262.985 C468,263.6948 468,280.6984 468,281.4018" fill="none" id="Settings Button-to-Settings Panel" style="stroke:#181818;stroke-width:1;"/><polygon fill="#181818" points="468,287.4018,472,278.4018,468,282.4018,464,278.4018,468,287.4018" style="stroke:#181818;stroke-width:1;"/></g><!--link Main Window to Loading Overlay--><g class="link" data-entity-1="Main Window" data-entity-2="Loading Overlay" data-source-line="14" data-uid="lnk15" id="link_Main Window_Loading Overlay"><path d="M582.2938,72.19 C582.4891,72.19 582.6877,72.19 582.8893,72.19 C583.696,72.19 584.5529,72.19 585.4582,72.19 C587.2686,72.19 589.2724,72.19 591.4539,72.19 C600.18,72.19 611.7505,72.19 625.1748,72.19 C652.0234,72.19 686.2869,72.19 720.0387,72.19 C787.5425,72.19 853,72.19 853,72.19 C853,72.19 853,117.56 853,148.87" fill="none" id="Main Window-to-Loading Overlay" style="stroke:#181818;stroke-width:1;"/><polygon fill="#181818" points="853,154.87,857,145.87,853,149.87,849,145.87,853,154.87" style="stroke:#181818;stroke-width:1;"/><text fill="#000000" font-family="sans-serif" font-size="13" lengthAdjust="spacing" textLength="93.2153" x="661.24" y="68.2569">on submission</text></g><!--link Main Window to Error Log Tab--><g class="link" data-entity-1="Main Window" data-entity-2="Error Log Tab" data-source-line="15" data-uid="lnk17" id="link_Main Window_Error Log Tab"><path d="M582.1005,179.19 C582.4366,179.19 582.7816,179.19 583.135,179.19 C588.79,179.19 590.62,179.19 599.32,179.19" fill="none" id="Main Window-to-Error Log Tab" style="stroke:#181818;stroke-width:1;"/><polygon fill="#181818" points="605.32,179.19,596.32,175.19,600.32,179.19,596.32,183.19,605.32,179.19" style="stroke:#181818;stroke-width:1;"/><text fill="#000000" font-family="sans-serif" font-size="13" lengthAdjust="spacing" textLength="4.1323" x="528.4216" y="154.7369">&#160;</text><text fill="#000000" font-family="sans-serif" font-size="13" lengthAdjust="spacing" textLength="4.1323" x="528.4216" y="169.8697">&#160;</text><text fill="#000000" font-family="sans-serif" font-size="13" lengthAdjust="spacing" textLength="86.9756" x="487" y="185.0025">toggled by UI</text></g><!--SRC=[TL51JiCm4Bpd5QFUyu4UE01181Mr4gauq1oSP1MiEBkMxRP4g7_7JL4W9TmyixEpwntVQhRAgGv6CuNU4iI5TqcigbhL41RFIZDUDTToNE0pmLls4Pog0d9L5X7U2H_8ZV25Gj3SUDpkGn0-KpbrrgX0k7TYeyr0FcX3s3WwQ3eMoIcPs29DRsRx9jF-L_trcewRiRaIN7y3QJt8HdwZc4mK_ZhFjzDAL1qbMCS9HlK5bX26tvUTzbx79p3NbZad3YjfBaijiUCT1saQGpNA7jkdv2UKwHgNN6RFF99PhOEuOiYl8eEniBKcBan3APUM68zax1cVlW00]--></g></svg>