<svg xmlns="http://www.w3.org/2000/svg" xmlns:xlink="http://www.w3.org/1999/xlink" contentStyleType="text/css" data-diagram-type="SEQUENCE" height="717px" preserveAspectRatio="none" style="width:1006px;height:717px;background:#FFFFFF;" version="1.1" viewBox="0 0 1006 717" width="1006px" zoomAndPan="magnify"><defs/><g><g><title>FileConverter</title><rect fill="#FFFFFF" height="433.7266" style="stroke:#181818;stroke-width:1;" width="10" x="451.0898" y="184.6953"/></g><rect fill="none" height="201.7969" style="stroke:#000000;stroke-width:1.5;" width="559.7686" x="392.0039" y="257.9609"/><g><title>User</title><rect fill="#000000" fill-opacity="0.00000" height="555.125" width="8" x="19.9551" y="81.2969"/><line style="stroke:#181818;stroke-width:0.5;stroke-dasharray:5.0,5.0;" x1="23" x2="23" y1="81.2969" y2="636.4219"/></g><g><title>UI</title><rect fill="#000000" fill-opacity="0.00000" height="555.125" width="8" x="213.3867" y="81.2969"/><line style="stroke:#181818;stroke-width:0.5;stroke-dasharray:5.0,5.0;" x1="217.1987" x2="217.1987" y1="81.2969" y2="636.4219"/></g><g><title>FileConverter</title><rect fill="#000000" fill-opacity="0.00000" height="555.125" width="8" x="452.0898" y="81.2969"/><line style="stroke:#181818;stroke-width:0.5;stroke-dasharray:5.0,5.0;" x1="456.0039" x2="456.0039" y1="81.2969" y2="636.4219"/></g><g><title>Unzipper</title><rect fill="#000000" fill-opacity="0.00000" height="555.125" width="8" x="640.0225" y="81.2969"/><line style="stroke:#181818;stroke-width:0.5;stroke-dasharray:5.0,5.0;" x1="643.772" x2="643.772" y1="81.2969" y2="636.4219"/></g><g><title>TxtParser</title><rect fill="#000000" fill-opacity="0.00000" height="555.125" width="8" x="728.6563" y="81.2969"/><line style="stroke:#181818;stroke-width:0.5;stroke-dasharray:5.0,5.0;" x1="732.2729" x2="732.2729" y1="81.2969" y2="636.4219"/></g><g><title>ExcelWriter</title><rect fill="#000000" fill-opacity="0.00000" height="555.125" width="8" x="942.7725" y="81.2969"/><line style="stroke:#181818;stroke-width:0.5;stroke-dasharray:5.0,5.0;" x1="946.4336" x2="946.4336" y1="81.2969" y2="636.4219"/></g><g class="participant participant-head" data-participant="User"><text fill="#000000" font-family="sans-serif" font-size="14" lengthAdjust="spacing" textLength="31.9102" x="5" y="77.9951">User</text><ellipse cx="23.9551" cy="13.5" fill="#E2E2F0" rx="8" ry="8" style="stroke:#181818;stroke-width:0.5;"/><path d="M23.9551,21.5 L23.9551,48.5 M10.9551,29.5 L36.9551,29.5 M23.9551,48.5 L10.9551,63.5 M23.9551,48.5 L36.9551,63.5" fill="none" style="stroke:#181818;stroke-width:0.5;"/></g><g class="participant participant-tail" data-participant="User"><text fill="#000000" font-family="sans-serif" font-size="14" lengthAdjust="spacing" textLength="31.9102" x="5" y="648.417">User</text><ellipse cx="23.9551" cy="660.2188" fill="#E2E2F0" rx="8" ry="8" style="stroke:#181818;stroke-width:0.5;"/><path d="M23.9551,668.2188 L23.9551,695.2188 M10.9551,676.2188 L36.9551,676.2188 M23.9551,695.2188 L10.9551,710.2188 M23.9551,695.2188 L36.9551,710.2188" fill="none" style="stroke:#181818;stroke-width:0.5;"/></g><g class="participant participant-head" data-participant="UI"><rect fill="#E2E2F0" height="30.2969" rx="2.5" ry="2.5" style="stroke:#181818;stroke-width:0.5;" width="28.376" x="203.1987" y="50"/><text fill="#000000" font-family="sans-serif" font-size="14" lengthAdjust="spacing" textLength="14.376" x="210.1987" y="69.9951">UI</text></g><g class="participant participant-tail" data-participant="UI"><rect fill="#E2E2F0" height="30.2969" rx="2.5" ry="2.5" style="stroke:#181818;stroke-width:0.5;" width="28.376" x="203.1987" y="635.4219"/><text fill="#000000" font-family="sans-serif" font-size="14" lengthAdjust="spacing" textLength="14.376" x="210.1987" y="655.417">UI</text></g><g class="participant participant-head" data-participant="FileConverter"><rect fill="#E2E2F0" height="30.2969" rx="2.5" ry="2.5" style="stroke:#181818;stroke-width:0.5;" width="108.1719" x="402.0039" y="50"/><text fill="#000000" font-family="sans-serif" font-size="14" lengthAdjust="spacing" textLength="94.1719" x="409.0039" y="69.9951">FileConverter</text></g><g class="participant participant-tail" data-participant="FileConverter"><rect fill="#E2E2F0" height="30.2969" rx="2.5" ry="2.5" style="stroke:#181818;stroke-width:0.5;" width="108.1719" x="402.0039" y="635.4219"/><text fill="#000000" font-family="sans-serif" font-size="14" lengthAdjust="spacing" textLength="94.1719" x="409.0039" y="655.417">FileConverter</text></g><g class="participant participant-head" data-participant="Unzipper"><rect fill="#E2E2F0" height="30.2969" rx="2.5" ry="2.5" style="stroke:#181818;stroke-width:0.5;" width="76.501" x="605.772" y="50"/><text fill="#000000" font-family="sans-serif" font-size="14" lengthAdjust="spacing" textLength="62.501" x="612.772" y="69.9951">Unzipper</text></g><g class="participant participant-tail" data-participant="Unzipper"><rect fill="#E2E2F0" height="30.2969" rx="2.5" ry="2.5" style="stroke:#181818;stroke-width:0.5;" width="76.501" x="605.772" y="635.4219"/><text fill="#000000" font-family="sans-serif" font-size="14" lengthAdjust="spacing" textLength="62.501" x="612.772" y="655.417">Unzipper</text></g><g class="participant participant-head" data-participant="TxtParser"><rect fill="#E2E2F0" height="30.2969" rx="2.5" ry="2.5" style="stroke:#181818;stroke-width:0.5;" width="80.7666" x="692.2729" y="50"/><text fill="#000000" font-family="sans-serif" font-size="14" lengthAdjust="spacing" textLength="66.7666" x="699.2729" y="69.9951">TxtParser</text></g><g class="participant participant-tail" data-participant="TxtParser"><rect fill="#E2E2F0" height="30.2969" rx="2.5" ry="2.5" style="stroke:#181818;stroke-width:0.5;" width="80.7666" x="692.2729" y="635.4219"/><text fill="#000000" font-family="sans-serif" font-size="14" lengthAdjust="spacing" textLength="66.7666" x="699.2729" y="655.417">TxtParser</text></g><g class="participant participant-head" data-participant="ExcelWriter"><rect fill="#E2E2F0" height="30.2969" rx="2.5" ry="2.5" style="stroke:#181818;stroke-width:0.5;" width="94.6777" x="899.4336" y="50"/><text fill="#000000" font-family="sans-serif" font-size="14" lengthAdjust="spacing" textLength="80.6777" x="906.4336" y="69.9951">ExcelWriter</text></g><g class="participant participant-tail" data-participant="ExcelWriter"><rect fill="#E2E2F0" height="30.2969" rx="2.5" ry="2.5" style="stroke:#181818;stroke-width:0.5;" width="94.6777" x="899.4336" y="635.4219"/><text fill="#000000" font-family="sans-serif" font-size="14" lengthAdjust="spacing" textLength="80.6777" x="906.4336" y="655.417">ExcelWriter</text></g><g><title>FileConverter</title><rect fill="#FFFFFF" height="433.7266" style="stroke:#181818;stroke-width:1;" width="10" x="451.0898" y="184.6953"/></g><rect fill="#EEEEEE" height="3" style="stroke:#EEEEEE;stroke-width:1;" width="999.1113" x="0" y="111.8633"/><line style="stroke:#000000;stroke-width:1;" x1="0" x2="999.1113" y1="111.8633" y2="111.8633"/><line style="stroke:#000000;stroke-width:1;" x1="0" x2="999.1113" y1="114.8633" y2="114.8633"/><rect fill="#EEEEEE" height="23.1328" style="stroke:#000000;stroke-width:2;" width="121.6626" x="438.7244" y="101.2969"/><text fill="#000000" font-family="sans-serif" font-size="13" font-weight="bold" lengthAdjust="spacing" textLength="103.1367" x="444.7244" y="117.3638">Begin Process</text><g class="message" data-participant-1="User" data-participant-2="UI"><polygon fill="#181818" points="205.3867,151.5625,215.3867,155.5625,205.3867,159.5625,209.3867,155.5625" style="stroke:#181818;stroke-width:1;"/><line style="stroke:#181818;stroke-width:1;" x1="23.9551" x2="211.3867" y1="155.5625" y2="155.5625"/><text fill="#000000" font-family="sans-serif" font-size="13" lengthAdjust="spacing" textLength="169.4316" x="30.9551" y="150.4966">Select ZIP file + Template</text></g><g class="message" data-participant-1="UI" data-participant-2="FileConverter"><polygon fill="#181818" points="439.0898,180.6953,449.0898,184.6953,439.0898,188.6953,443.0898,184.6953" style="stroke:#181818;stroke-width:1;"/><line style="stroke:#181818;stroke-width:1;" x1="217.3867" x2="445.0898" y1="184.6953" y2="184.6953"/><text fill="#000000" font-family="sans-serif" font-size="13" lengthAdjust="spacing" textLength="214.7031" x="224.3867" y="179.6294">extract(zip_file, template_config)</text></g><g class="message" data-participant-1="FileConverter" data-participant-2="Unzipper"><polygon fill="#181818" points="632.0225,209.8281,642.0225,213.8281,632.0225,217.8281,636.0225,213.8281" style="stroke:#181818;stroke-width:1;"/><line style="stroke:#181818;stroke-width:1;" x1="461.0898" x2="638.0225" y1="213.8281" y2="213.8281"/><text fill="#000000" font-family="sans-serif" font-size="13" lengthAdjust="spacing" textLength="158.9326" x="468.0898" y="208.7622">extract_txt_files(zip_file)</text></g><g class="message" data-participant-1="Unzipper" data-participant-2="FileConverter"><polygon fill="#181818" points="472.0898,238.9609,462.0898,242.9609,472.0898,246.9609,468.0898,242.9609" style="stroke:#181818;stroke-width:1;"/><line style="stroke:#181818;stroke-width:1;stroke-dasharray:2.0,2.0;" x1="466.0898" x2="643.0225" y1="242.9609" y2="242.9609"/><text fill="#000000" font-family="sans-serif" font-size="13" lengthAdjust="spacing" textLength="95.583" x="478.0898" y="237.895">list_of_txt_files</text></g><path d="M392.0039,257.9609 L468.6279,257.9609 L468.6279,265.0938 L458.6279,275.0938 L392.0039,275.0938 L392.0039,257.9609" fill="#EEEEEE" style="stroke:#000000;stroke-width:1.5;"/><rect fill="none" height="201.7969" style="stroke:#000000;stroke-width:1.5;" width="559.7686" x="392.0039" y="257.9609"/><text fill="#000000" font-family="sans-serif" font-size="13" font-weight="bold" lengthAdjust="spacing" textLength="31.624" x="407.0039" y="271.0278">loop</text><text fill="#000000" font-family="sans-serif" font-size="11" font-weight="bold" lengthAdjust="spacing" textLength="114.5493" x="483.6279" y="270.1714">[For each TXT file]</text><g class="message" data-participant-1="FileConverter" data-participant-2="TxtParser"><polygon fill="#181818" points="720.6563,292.2266,730.6563,296.2266,720.6563,300.2266,724.6563,296.2266" style="stroke:#181818;stroke-width:1;"/><line style="stroke:#181818;stroke-width:1;" x1="461.0898" x2="726.6563" y1="296.2266" y2="296.2266"/><text fill="#000000" font-family="sans-serif" font-size="13" lengthAdjust="spacing" textLength="203.8931" x="468.0898" y="291.1606">parse_txt(file, template_config)</text></g><g class="message" data-participant-1="TxtParser" data-participant-2="TxtParser"><line style="stroke:#181818;stroke-width:1;" x1="732.6563" x2="774.6563" y1="325.3594" y2="325.3594"/><line style="stroke:#181818;stroke-width:1;" x1="774.6563" x2="774.6563" y1="325.3594" y2="338.3594"/><line style="stroke:#181818;stroke-width:1;" x1="733.6563" x2="774.6563" y1="338.3594" y2="338.3594"/><polygon fill="#181818" points="743.6563,334.3594,733.6563,338.3594,743.6563,342.3594,739.6563,338.3594" style="stroke:#181818;stroke-width:1;"/><text fill="#000000" font-family="sans-serif" font-size="13" lengthAdjust="spacing" textLength="98.0967" x="739.6563" y="320.2935">apply delimiter</text></g><g class="message" data-participant-1="TxtParser" data-participant-2="TxtParser"><line style="stroke:#181818;stroke-width:1;" x1="732.6563" x2="774.6563" y1="367.4922" y2="367.4922"/><line style="stroke:#181818;stroke-width:1;" x1="774.6563" x2="774.6563" y1="367.4922" y2="380.4922"/><line style="stroke:#181818;stroke-width:1;" x1="733.6563" x2="774.6563" y1="380.4922" y2="380.4922"/><polygon fill="#181818" points="743.6563,376.4922,733.6563,380.4922,743.6563,384.4922,739.6563,380.4922" style="stroke:#181818;stroke-width:1;"/><text fill="#000000" font-family="sans-serif" font-size="13" lengthAdjust="spacing" textLength="200.1162" x="739.6563" y="362.4263">skip header/trailer using regex</text></g><g class="message" data-participant-1="TxtParser" data-participant-2="TxtParser"><line style="stroke:#181818;stroke-width:1;" x1="732.6563" x2="774.6563" y1="409.625" y2="409.625"/><line style="stroke:#181818;stroke-width:1;" x1="774.6563" x2="774.6563" y1="409.625" y2="422.625"/><line style="stroke:#181818;stroke-width:1;" x1="733.6563" x2="774.6563" y1="422.625" y2="422.625"/><polygon fill="#181818" points="743.6563,418.625,733.6563,422.625,743.6563,426.625,739.6563,422.625" style="stroke:#181818;stroke-width:1;"/><text fill="#000000" font-family="sans-serif" font-size="13" lengthAdjust="spacing" textLength="133.6309" x="739.6563" y="404.5591">extract logical name</text></g><g class="message" data-participant-1="TxtParser" data-participant-2="FileConverter"><polygon fill="#181818" points="472.0898,447.7578,462.0898,451.7578,472.0898,455.7578,468.0898,451.7578" style="stroke:#181818;stroke-width:1;"/><line style="stroke:#181818;stroke-width:1;stroke-dasharray:2.0,2.0;" x1="466.0898" x2="731.6563" y1="451.7578" y2="451.7578"/><text fill="#000000" font-family="sans-serif" font-size="13" lengthAdjust="spacing" textLength="162.0684" x="478.0898" y="446.6919">data_frame, sheet_name</text></g><rect fill="#EEEEEE" height="3" style="stroke:#EEEEEE;stroke-width:1;" width="999.1113" x="0" y="487.3242"/><line style="stroke:#000000;stroke-width:1;" x1="0" x2="999.1113" y1="487.3242" y2="487.3242"/><line style="stroke:#000000;stroke-width:1;" x1="0" x2="999.1113" y1="490.3242" y2="490.3242"/><rect fill="#EEEEEE" height="23.1328" style="stroke:#000000;stroke-width:2;" width="123.6938" x="437.7087" y="476.7578"/><text fill="#000000" font-family="sans-serif" font-size="13" font-weight="bold" lengthAdjust="spacing" textLength="105.168" x="443.7087" y="492.8247">Excel Creation</text><g class="message" data-participant-1="FileConverter" data-participant-2="ExcelWriter"><polygon fill="#181818" points="934.7725,527.0234,944.7725,531.0234,934.7725,535.0234,938.7725,531.0234" style="stroke:#181818;stroke-width:1;"/><line style="stroke:#181818;stroke-width:1;" x1="461.0898" x2="940.7725" y1="531.0234" y2="531.0234"/><text fill="#000000" font-family="sans-serif" font-size="13" lengthAdjust="spacing" textLength="193.5781" x="468.0898" y="525.9575">write_workbook(data_frames)</text></g><g class="message" data-participant-1="ExcelWriter" data-participant-2="FileConverter"><polygon fill="#181818" points="472.0898,556.1563,462.0898,560.1563,472.0898,564.1563,468.0898,560.1563" style="stroke:#181818;stroke-width:1;"/><line style="stroke:#181818;stroke-width:1;stroke-dasharray:2.0,2.0;" x1="466.0898" x2="945.7725" y1="560.1563" y2="560.1563"/><text fill="#000000" font-family="sans-serif" font-size="13" lengthAdjust="spacing" textLength="70.5034" x="478.0898" y="555.0903">excel_path</text></g><g class="message" data-participant-1="FileConverter" data-participant-2="UI"><polygon fill="#181818" points="228.3867,585.2891,218.3867,589.2891,228.3867,593.2891,224.3867,589.2891" style="stroke:#181818;stroke-width:1;"/><line style="stroke:#181818;stroke-width:1;stroke-dasharray:2.0,2.0;" x1="222.3867" x2="450.0898" y1="589.2891" y2="589.2891"/><text fill="#000000" font-family="sans-serif" font-size="13" lengthAdjust="spacing" textLength="114.8989" x="234.3867" y="584.2231">return excel_path</text></g><g class="message" data-participant-1="UI" data-participant-2="User"><polygon fill="#181818" points="34.9551,614.4219,24.9551,618.4219,34.9551,622.4219,30.9551,618.4219" style="stroke:#181818;stroke-width:1;"/><line style="stroke:#181818;stroke-width:1;stroke-dasharray:2.0,2.0;" x1="28.9551" x2="216.3867" y1="618.4219" y2="618.4219"/><text fill="#000000" font-family="sans-serif" font-size="13" lengthAdjust="spacing" textLength="160.3418" x="40.9551" y="613.356">Show extraction success</text></g><!--SRC=[VLBBRi8m4BpxA_O8AgZtIkcXg9Mu8H7KgXVBTJQ9XR4jUu6qNryxvP64q9kJdSVkQ8Gaws4Jq3CdF2cfd304csNlyqrfN5XpG4z3eFbHpWr-vWsjX1zglZOIzRjNIIBBu0KhPM3bhSGG8CjOMWBcpz4Rdc2D6YN1vt85PJI71yXnvxGWP74UKRsL8W4RyaBI9Ax34sC6T29mQKsfgYcBOtM8FmRdz9NI0gURhggS6cfLmqL_oYwm-SWwMWNYjhmIcRRMmLiC6uMi8V_8syCOtDXVqeioBZsIoEJEJHtqW2gSqzzGe5QxDlBxoB1L3ceK1Vh7U6uqyh0FobJWiSBc7-Of7j2sKb9eC6A7FVX8CeKWmKiVaJC8DIBnbeMcW1HHgaRR55Xu5AIiITsu2QbJfgXvJ0z-j7xxPUrsShK8KzP5paUB4-VS2Qg7BkSkUgIzDrrWgc2Q_gMmhktn74NQD-nbwZGhSBnnlm00]--></g></svg>