<svg xmlns="http://www.w3.org/2000/svg" xmlns:xlink="http://www.w3.org/1999/xlink" contentStyleType="text/css" data-diagram-type="ACTIVITY" height="720px" preserveAspectRatio="none" style="width:278px;height:720px;background:#FFFFFF;" version="1.1" viewBox="0 0 278 720" width="278px" zoomAndPan="magnify"><defs/><g><ellipse cx="128.1006" cy="20" fill="#222222" rx="10" ry="10" style="stroke:#222222;stroke-width:1;"/><rect fill="#F1F1F1" height="33.9688" rx="12.5" ry="12.5" style="stroke:#181818;stroke-width:0.5;" width="149.7031" x="53.249" y="50"/><text fill="#000000" font-family="sans-serif" font-size="12" lengthAdjust="spacing" textLength="129.7031" x="63.249" y="71.1387">Load template_config</text><rect fill="#F1F1F1" height="33.9688" rx="12.5" ry="12.5" style="stroke:#181818;stroke-width:0.5;" width="123.957" x="66.1221" y="103.9688"/><text fill="#000000" font-family="sans-serif" font-size="12" lengthAdjust="spacing" textLength="103.957" x="76.1221" y="125.1074">Unzip all .txt files</text><rect fill="#F1F1F1" height="33.9688" rx="12.5" ry="12.5" style="stroke:#181818;stroke-width:0.5;" width="111.4063" x="72.3975" y="211.9063"/><text fill="#000000" font-family="sans-serif" font-size="12" lengthAdjust="spacing" textLength="91.4063" x="82.3975" y="233.0449">Apply delimiter</text><rect fill="#F1F1F1" height="33.9688" rx="12.5" ry="12.5" style="stroke:#181818;stroke-width:0.5;" width="222.5176" x="16.8418" y="265.875"/><text fill="#000000" font-family="sans-serif" font-size="12" lengthAdjust="spacing" textLength="202.5176" x="26.8418" y="287.0137">Skip rows matching skip_patterns</text><rect fill="#F1F1F1" height="33.9688" rx="12.5" ry="12.5" style="stroke:#181818;stroke-width:0.5;" width="224.1758" x="16.0127" y="319.8438"/><text fill="#000000" font-family="sans-serif" font-size="12" lengthAdjust="spacing" textLength="204.1758" x="26.0127" y="340.9824">Identify logical name from header</text><rect fill="#F1F1F1" height="33.9688" rx="12.5" ry="12.5" style="stroke:#181818;stroke-width:0.5;" width="136.1738" x="60.0137" y="373.8125"/><text fill="#000000" font-family="sans-serif" font-size="12" lengthAdjust="spacing" textLength="116.1738" x="70.0137" y="394.9512">Map to sheet name</text><rect fill="#F1F1F1" height="33.9688" rx="12.5" ry="12.5" style="stroke:#181818;stroke-width:0.5;" width="154.0391" x="51.0811" y="427.7813"/><text fill="#000000" font-family="sans-serif" font-size="12" lengthAdjust="spacing" textLength="134.0391" x="61.0811" y="448.9199">Convert to DataFrame</text><rect fill="#F1F1F1" height="33.9688" rx="12.5" ry="12.5" style="stroke:#181818;stroke-width:0.5;" width="118.1621" x="69.0195" y="157.9375"/><text fill="#000000" font-family="sans-serif" font-size="12" lengthAdjust="spacing" textLength="98.1621" x="79.0195" y="179.0762">For each .txt file</text><polygon fill="#F1F1F1" points="97.8237,481.75,158.3774,481.75,170.3774,493.75,158.3774,505.75,97.8237,505.75,85.8237,493.75,97.8237,481.75" style="stroke:#181818;stroke-width:0.5;"/><text fill="#000000" font-family="sans-serif" font-size="11" lengthAdjust="spacing" textLength="60.5537" x="97.8237" y="497.5581">more files?</text><text fill="#000000" font-family="sans-serif" font-size="11" lengthAdjust="spacing" textLength="19.0083" x="170.3774" y="491.1558">yes</text><rect fill="#F1F1F1" height="33.9688" rx="12.5" ry="12.5" style="stroke:#181818;stroke-width:0.5;" width="234.2012" x="11" y="525.75"/><text fill="#000000" font-family="sans-serif" font-size="12" lengthAdjust="spacing" textLength="214.2012" x="21" y="546.8887">Add DataFrames to Excel workbook</text><rect fill="#F1F1F1" height="33.9688" rx="12.5" ry="12.5" style="stroke:#181818;stroke-width:0.5;" width="107.3574" x="74.4219" y="579.7188"/><text fill="#000000" font-family="sans-serif" font-size="12" lengthAdjust="spacing" textLength="87.3574" x="84.4219" y="600.8574">Save Excel file</text><rect fill="#F1F1F1" height="33.9688" rx="12.5" ry="12.5" style="stroke:#181818;stroke-width:0.5;" width="127.4785" x="64.3613" y="633.6875"/><text fill="#000000" font-family="sans-serif" font-size="12" lengthAdjust="spacing" textLength="107.4785" x="74.3613" y="654.8262">Return Excel path</text><ellipse cx="128.1006" cy="698.6563" fill="none" rx="11" ry="11" style="stroke:#222222;stroke-width:1;"/><ellipse cx="128.1006" cy="698.6563" fill="#222222" rx="6" ry="6" style="stroke:#222222;stroke-width:1;"/><line style="stroke:#181818;stroke-width:1;" x1="128.1006" x2="128.1006" y1="30" y2="50"/><polygon fill="#181818" points="124.1006,40,128.1006,50,132.1006,40,128.1006,44" style="stroke:#181818;stroke-width:1;"/><line style="stroke:#181818;stroke-width:1;" x1="128.1006" x2="128.1006" y1="83.9688" y2="103.9688"/><polygon fill="#181818" points="124.1006,93.9688,128.1006,103.9688,132.1006,93.9688,128.1006,97.9688" style="stroke:#181818;stroke-width:1;"/><line style="stroke:#181818;stroke-width:1;" x1="128.1006" x2="128.1006" y1="245.875" y2="265.875"/><polygon fill="#181818" points="124.1006,255.875,128.1006,265.875,132.1006,255.875,128.1006,259.875" style="stroke:#181818;stroke-width:1;"/><line style="stroke:#181818;stroke-width:1;" x1="128.1006" x2="128.1006" y1="299.8438" y2="319.8438"/><polygon fill="#181818" points="124.1006,309.8438,128.1006,319.8438,132.1006,309.8438,128.1006,313.8438" style="stroke:#181818;stroke-width:1;"/><line style="stroke:#181818;stroke-width:1;" x1="128.1006" x2="128.1006" y1="353.8125" y2="373.8125"/><polygon fill="#181818" points="124.1006,363.8125,128.1006,373.8125,132.1006,363.8125,128.1006,367.8125" style="stroke:#181818;stroke-width:1;"/><line style="stroke:#181818;stroke-width:1;" x1="128.1006" x2="128.1006" y1="407.7813" y2="427.7813"/><polygon fill="#181818" points="124.1006,417.7813,128.1006,427.7813,132.1006,417.7813,128.1006,421.7813" style="stroke:#181818;stroke-width:1;"/><line style="stroke:#181818;stroke-width:1;" x1="128.1006" x2="128.1006" y1="191.9063" y2="211.9063"/><polygon fill="#181818" points="124.1006,201.9063,128.1006,211.9063,132.1006,201.9063,128.1006,205.9063" style="stroke:#181818;stroke-width:1;"/><line style="stroke:#181818;stroke-width:1;" x1="170.3774" x2="252.1885" y1="493.75" y2="493.75"/><polygon fill="#181818" points="248.1885,344.3359,252.1885,334.3359,256.1885,344.3359,252.1885,340.3359" style="stroke:#181818;stroke-width:1;"/><line style="stroke:#181818;stroke-width:1;" x1="252.1885" x2="252.1885" y1="174.9219" y2="493.75"/><line style="stroke:#181818;stroke-width:1;" x1="252.1885" x2="187.1816" y1="174.9219" y2="174.9219"/><polygon fill="#181818" points="197.1816,170.9219,187.1816,174.9219,197.1816,178.9219,193.1816,174.9219" style="stroke:#181818;stroke-width:1;"/><line style="stroke:#181818;stroke-width:1;" x1="128.1006" x2="128.1006" y1="461.75" y2="481.75"/><polygon fill="#181818" points="124.1006,471.75,128.1006,481.75,132.1006,471.75,128.1006,475.75" style="stroke:#181818;stroke-width:1;"/><line style="stroke:#181818;stroke-width:1;" x1="128.1006" x2="128.1006" y1="137.9375" y2="157.9375"/><polygon fill="#181818" points="124.1006,147.9375,128.1006,157.9375,132.1006,147.9375,128.1006,151.9375" style="stroke:#181818;stroke-width:1;"/><line style="stroke:#181818;stroke-width:1;" x1="128.1006" x2="128.1006" y1="505.75" y2="525.75"/><polygon fill="#181818" points="124.1006,515.75,128.1006,525.75,132.1006,515.75,128.1006,519.75" style="stroke:#181818;stroke-width:1;"/><line style="stroke:#181818;stroke-width:1;" x1="128.1006" x2="128.1006" y1="559.7188" y2="579.7188"/><polygon fill="#181818" points="124.1006,569.7188,128.1006,579.7188,132.1006,569.7188,128.1006,573.7188" style="stroke:#181818;stroke-width:1;"/><line style="stroke:#181818;stroke-width:1;" x1="128.1006" x2="128.1006" y1="613.6875" y2="633.6875"/><polygon fill="#181818" points="124.1006,623.6875,128.1006,633.6875,132.1006,623.6875,128.1006,627.6875" style="stroke:#181818;stroke-width:1;"/><line style="stroke:#181818;stroke-width:1;" x1="128.1006" x2="128.1006" y1="667.6563" y2="687.6563"/><polygon fill="#181818" points="124.1006,677.6563,128.1006,687.6563,132.1006,677.6563,128.1006,681.6563" style="stroke:#181818;stroke-width:1;"/><!--SRC=[HOz1JiGm34NtFOMNCniEq2uG0aP2OZOWrYFJk4tK98uSCvroUjnIQRRl-tyzLqNHfdrdTA2KIaIbIyzv26FNj5_vDnJ06E51Rmf3Y5IxHgWGAhGd5Y3i_JsqobCfSG57CQIW94O-9ziGdYiarDw7F48rT2ceTf1ji7rpb3KC2qGUGuyHCYQ2GJY19tJRp1aBA4FrHBhbnfuvNqbqvI-eU98DxtwpDoCu91RwDtyyGgXmMAWUpTEvUwUk2w-tdYBCBDCtyxIAuvLskZ_tGVeZUMVcxxkcAfS_]--></g></svg>